<?xml version="1.0" standalone="no"?>
<!DOCTYPE svg PUBLIC "-//W3C//DTD SVG 20010904//EN"
 "http://www.w3.org/TR/2001/REC-SVG-20010904/DTD/svg10.dtd">
<svg version="1.0" xmlns="http://www.w3.org/2000/svg"
 width="600.000000pt" height="600.000000pt" viewBox="0 0 600.000000 600.000000"
 preserveAspectRatio="xMidYMid meet">
<metadata>
Created by potrace 1.14, written by Peter Selinger 2001-2017
</metadata>
<g transform="translate(0.000000,600.000000) scale(0.100000,-0.100000)"
fill="#000000" stroke="none">
<path d="M3266 3868 c-14 -21 -16 -22 -26 -5 -15 23 -42 8 -63 -35 -14 -27
-17 -29 -17 -11 0 31 -14 36 -37 13 -14 -12 -24 -15 -31 -8 -11 11 -52 -6 -52
-23 0 -5 -7 -26 -16 -47 -20 -43 -20 -43 -36 -142 -11 -61 -17 -75 -33 -79
-11 -2 -31 -16 -43 -32 -16 -18 -30 -26 -40 -22 -10 4 -14 3 -10 -2 4 -4 -7
-15 -25 -25 -28 -14 -34 -14 -44 -2 -7 8 -10 19 -7 24 4 5 -3 18 -15 29 -12
11 -21 26 -21 34 0 9 -10 15 -24 15 -17 0 -27 9 -37 32 -7 18 -33 54 -58 81
-42 44 -47 46 -58 31 -11 -14 -13 -15 -13 -3 0 8 -9 25 -20 37 -17 18 -25 20
-41 11 -17 -9 -24 -7 -36 11 -11 15 -22 20 -37 16 -16 -4 -27 3 -45 29 -25 37
-41 45 -41 20 0 -12 -7 -9 -27 10 -35 32 -76 31 -81 -2 -4 -31 -20 -29 -28 2
-8 30 -27 32 -45 4 -13 -19 -16 -20 -44 -5 -52 27 -85 15 -85 -31 0 -28 -5
-29 -37 -3 -14 11 -39 20 -54 20 -26 0 -29 -4 -29 -30 0 -33 -2 -35 -31 -19
-24 13 -59 3 -59 -17 0 -8 11 -19 25 -24 21 -8 24 -12 13 -23 -7 -8 -17 -10
-23 -5 -29 24 -88 58 -100 58 -18 0 -35 -31 -35 -64 0 -33 -17 -33 -60 -1 -19
14 -40 25 -47 25 -7 0 -13 6 -13 14 0 14 -82 42 -97 33 -5 -3 -27 0 -49 8 -26
9 -43 10 -51 3 -8 -6 -22 -4 -42 6 -16 9 -41 16 -55 16 -37 0 -78 -18 -70 -31
5 -8 -3 -10 -27 -5 -19 4 -55 10 -82 13 -38 4 -47 2 -47 -10 0 -28 -18 -28
-69 -2 -28 14 -67 25 -87 25 -35 0 -36 -1 -32 -30 4 -25 2 -30 -11 -24 -9 4
-42 8 -73 9 -37 0 -63 6 -75 17 -79 70 -193 113 -213 80 -5 -10 -10 -12 -10
-4 0 21 -20 13 -20 -8 0 -32 144 -142 370 -283 116 -72 432 -235 490 -252 14
-4 57 -23 97 -41 40 -19 76 -34 82 -34 5 0 11 -4 13 -9 2 -5 50 -23 108 -41
78 -24 114 -41 140 -65 56 -53 119 -78 311 -125 l86 -21 72 36 c39 20 74 42
78 50 3 8 11 15 17 15 7 0 17 5 23 11 7 7 38 13 70 14 32 1 66 6 76 10 14 6
17 2 17 -23 0 -17 4 -32 10 -34 6 -2 6 -14 1 -33 -5 -16 -10 -23 -10 -14 -2
29 -38 15 -75 -29 -20 -24 -36 -38 -36 -30 0 8 -9 14 -20 15 -20 2 -60 -43
-73 -79 -4 -10 -13 -18 -22 -18 -13 0 -20 -18 -16 -42 0 -5 -3 -8 -8 -8 -5 0
-15 -24 -21 -52 -7 -30 -25 -67 -41 -86 -44 -50 -69 -107 -68 -154 1 -89 44
-155 75 -114 8 11 14 31 14 44 0 20 13 29 83 62 109 51 113 52 109 17 -9 -72
52 -217 117 -283 47 -48 127 -84 211 -96 65 -9 91 -7 190 12 63 12 144 25 180
30 63 8 67 8 120 -24 30 -19 64 -36 75 -40 11 -3 36 -20 55 -37 58 -50 82 -60
125 -48 34 10 36 13 31 37 -4 15 -10 59 -14 97 -13 114 -57 180 -150 223 -49
22 -63 24 -136 19 -44 -4 -119 -18 -166 -31 -47 -14 -122 -31 -167 -38 -73
-10 -89 -10 -138 6 -73 23 -134 82 -160 154 -17 47 -22 52 -49 54 -23 1 -20 3
14 7 40 5 46 4 54 -16 6 -13 14 -23 19 -23 9 0 6 18 -8 53 -4 9 -3 17 2 17 10
0 49 -33 54 -47 7 -14 82 -70 126 -92 49 -24 147 -40 217 -34 111 9 206 84
241 191 22 68 23 175 1 226 -13 31 -14 41 -4 48 23 14 44 3 49 -26 5 -27 53
-53 138 -76 116 -33 171 -24 308 48 28 15 92 48 142 74 49 25 116 64 148 86
32 21 99 62 148 90 50 27 106 59 125 71 19 11 54 29 78 40 23 11 82 46 130 77
48 32 112 72 142 89 30 18 123 74 205 125 83 52 202 120 265 152 158 79 272
169 246 195 -2 3 -29 -2 -58 -10 -29 -8 -75 -20 -102 -26 -26 -6 -67 -20 -90
-30 -22 -11 -59 -24 -81 -30 -22 -6 -57 -20 -77 -31 l-37 -20 5 30 c8 36 -13
48 -48 29 -13 -7 -35 -14 -50 -16 -15 -1 -67 -21 -115 -42 -89 -40 -106 -44
-83 -16 45 54 -101 34 -256 -36 l-62 -27 3 31 c1 18 0 35 -2 38 -4 9 -81 -9
-117 -27 -37 -18 -39 -18 -31 6 6 18 2 20 -37 19 -24 -1 -54 -4 -68 -8 -17 -5
-29 -2 -36 8 -10 13 -18 12 -67 -3 -30 -9 -58 -24 -61 -32 -3 -9 -10 -13 -16
-9 -10 6 -43 -10 -76 -38 -19 -16 -22 -16 -27 -3 -4 10 6 24 26 40 30 24 31
26 15 42 -16 16 -19 16 -56 0 -22 -10 -51 -29 -65 -42 -14 -13 -33 -21 -41
-18 -9 3 -46 -15 -88 -43 -70 -47 -108 -67 -108 -58 0 12 98 105 110 105 20 0
77 66 83 97 7 36 -15 62 -48 55 -14 -2 -25 -10 -25 -17 0 -8 -8 -11 -21 -8
-16 5 -18 8 -7 15 11 7 10 11 -2 21 -9 7 -14 24 -12 41 6 48 -56 66 -80 24
-12 -22 -13 -21 -18 17 -4 35 -8 40 -34 43 -44 5 -74 -6 -82 -31 -7 -22 -7
-21 -16 6 -12 33 -40 35 -62 5z m-170 -1086 c20 -69 14 -127 -19 -160 -26 -26
-102 -45 -143 -37 -13 3 -35 7 -49 10 -25 5 -35 25 -12 25 6 0 18 4 26 9 12 8
12 13 3 24 -10 12 -7 16 19 21 17 3 44 6 59 6 15 0 37 9 50 20 13 11 29 20 37
20 8 0 13 6 10 13 -2 6 -16 12 -30 12 -15 -1 -27 3 -27 7 0 4 14 8 30 8 35 0
37 9 10 69 -25 54 -25 63 0 32 11 -13 27 -48 36 -79z"/>
</g>
</svg>
